HIERARCHY
ROOT Hips
{
	OFFSET 0.00000 0.00000 0.00000
	CHANNELS 6 Xposition Yposition Zposition Zrotation Yrotation Xrotation 
	JOINT LHipJoint
	{
		OFFSET 0 0 0
		CHANNELS 3 Zrotation Yrotation Xrotation
		JOINT LeftHip
		{
			OFFSET 1.74857 -1.85566 0.69197
			CHANNELS 3 Zrotation Yrotation Xrotation
			JOINT LeftKnee
			{
				OFFSET 2.40003 -6.59403 0.00000
				CHANNELS 3 Zrotation Yrotation Xrotation
				JOINT LeftAnkle
				{
					OFFSET 2.82169 -7.75254 0.00000
					CHANNELS 3 Zrotation Yrotation Xrotation
					JOINT LeftToe
					{
						OFFSET 0.16466 -0.45240 2.26890
						CHANNELS 3 Zrotation Yrotation Xrotation
						End Site
						{
							OFFSET 0.00000 -0.00000 1.16486
						}
					}
				}
			}
		}
	}
	JOINT RHipJoint
	{
		OFFSET 0 0 0
		CHANNELS 3 Zrotation Yrotation Xrotation
		JOINT RightHip
		{
			OFFSET -1.64169 -1.85566 0.69197
			CHANNELS 3 Zrotation Yrotation Xrotation
			JOINT RightKnee
			{
				OFFSET -2.41814 -6.64379 0.00000
				CHANNELS 3 Zrotation Yrotation Xrotation
				JOINT RightAnkle
				{
					OFFSET -2.80588 -7.70911 0.00000
					CHANNELS 3 Zrotation Yrotation Xrotation
					JOINT RightToe
					{
						OFFSET -0.19098 -0.52472 2.25401
						CHANNELS 3 Zrotation Yrotation Xrotation
						End Site
						{
							OFFSET -0.00000 -0.00000 1.16333
						}
					}
				}
			}
		}
	}
	JOINT lowerback
	{
		OFFSET 0 0 0
		CHANNELS 3 Zrotation Yrotation Xrotation
		JOINT Chest
		{
			OFFSET -0.02828 2.14690 -0.11061
			CHANNELS 3 Zrotation Yrotation Xrotation
			JOINT Chest2
			{
				OFFSET -0.00167 2.15299 0.00759
				CHANNELS 3 Zrotation Yrotation Xrotation
				JOINT lowerneck
				{
					OFFSET 0 0 0
					CHANNELS 3 Zrotation Yrotation Xrotation
					JOINT Neck
					{
						OFFSET -0.09296 1.90118 0.07197
						CHANNELS 3 Zrotation Yrotation Xrotation
						JOINT Head
						{
							OFFSET 0.08490 1.89526 -0.24604
							CHANNELS 3 Zrotation Yrotation Xrotation
							End Site
							{
								OFFSET 0.03186 1.92109 -0.09483
							}
						}
					}
				}
				JOINT LeftCollar
				{
					OFFSET 0 0 0
					CHANNELS 3 Zrotation Yrotation Xrotation
					JOINT LeftShoulder
					{
						OFFSET 3.21569 1.44644 -0.03720
CHANNELS 3 Zrotation Xrotation Yrotation
						JOINT LeftElbow
						{
OFFSET 0 -5.476510 -0.000000
CHANNELS 3 Zrotation Xrotation Yrotation
							JOINT LeftWrist
							{
OFFSET 0 -3.090580 -0.000000
CHANNELS 3 Zrotation Xrotation Yrotation
								JOINT lhand
								{
									OFFSET 0 0 0
CHANNELS 3 Zrotation Xrotation Yrotation
									JOINT LFingers
									{
OFFSET 0 -0.771610 -0.000000
CHANNELS 3 Zrotation Xrotation Yrotation
										End Site
										{
OFFSET 0 -0.622090 -0.000000
										}
									}
								}
								JOINT LThumb
								{
OFFSET 0 0.000000 0.000000
CHANNELS 3 Zrotation Xrotation Yrotation
									End Site
									{
OFFSET 0 -0.631590 0.631590
									}
								}
							}
						}
					}
				}
				JOINT RightCollar
				{
					OFFSET 0 0 0
					CHANNELS 3 Zrotation Yrotation Xrotation
					JOINT RightShoulder
					{
						OFFSET -3.38693 1.28904 -0.07093
CHANNELS 3 Zrotation Xrotation Yrotation
						JOINT RightElbow
						{
OFFSET 0 -5.141820 -0.000000
CHANNELS 3 Zrotation Xrotation Yrotation
							JOINT RightWrist
							{
OFFSET 0 -3.355650 -0.000000
CHANNELS 3 Zrotation Xrotation Yrotation
								JOINT rhand
								{
									OFFSET 0 0 0
CHANNELS 3 Zrotation Xrotation Yrotation
									JOINT RFingers
									{
OFFSET 0 -0.801040 -0.000000
CHANNELS 3 Zrotation Xrotation Yrotation
										End Site
										{
OFFSET 0 -0.645820 -0.000000
										}
									}
								}
								JOINT RThumb
								{
OFFSET 0 0.000000 0.000000
CHANNELS 3 Zrotation Xrotation Yrotation
									End Site
									{
OFFSET 0 -0.655680 0.655680
									}
								}
							}
						}
					}
				}
			}
		}
	}
}
MOTION
Frames: 12
Frame Time: .0083333
-0.7332 18.1250 -0.6584 3.4329 -10.1623 0.0859 0.0000 0.0000 0.0000 -19.7276 0.7636 1.5962 0.1908 2.8128 7.7580 -0.2587 15.6315 -19.3251 0.4360 -4.2370 -11.7444 0.0000 0.0000 0.0000 18.0503 7.9369 -6.6635 -1.4149 -7.5230 21.2743 -0.2924 -9.0632 -17.2231 -0.4047 4.0839 -11.3129 -0.6221 0.7297 5.6451 0.5056 0.9269 5.3145 0.8354 0.4291 2.2910 -4.9956 -4.9103 -3.8293 -0.5555 -6.2018 6.6634 0.4422 -3.2241 2.9482 -0.0000 0.0000 0.0000 22.3942 20.0855 -65.0581 67.7751 -58.0488 40.8788 27.7611 -55.1805 -42.3816 0.0 0.0 0.0 -7.1250 0.0 0.0 -17.5490 75.2816 12.6004 -0.0000 0.0000 0.0000 -8.2592 28.9724 38.2939 -64.3206 -57.3554 -37.9584 -38.5886 -95.6275 -8.0389 0.0 0.0 0.0 7.1250 0.0 -0.0 -8.3747 19.7921 -5.0985
-0.7449 18.1251 -0.6648 3.4351 -10.1795 0.0883 0.0000 0.0000 0.0000 -19.6837 0.7673 1.5588 0.1921 2.8225 7.7849 -0.2558 15.6272 -19.3541 0.4245 -4.1816 -11.5881 0.0000 0.0000 0.0000 18.1020 8.0080 -6.6677 -1.4158 -7.5253 21.2811 -0.2823 -9.1634 -17.2066 -0.4166 4.1429 -11.4789 -0.6885 0.7168 5.6519 0.5374 0.9067 5.3411 0.9062 0.4161 2.3138 -5.0268 -4.8033 -3.6610 -0.5467 -6.0683 6.5879 0.4614 -3.1571 2.8892 0.0000 0.0000 0.0000 22.3583 19.554 -64.7817 68.6324 -58.2025 41.6068 27.3569 -55.5516 -41.8761 0.0 0.0 0.0 -7.1250 0.0 0.0 -17.1616 74.6761 12.0994 0.0000 0.0000 0.0000 -8.0797 28.5691 36.949 -64.7207 -57.442 -38.2955 -39.1959 -96.5098 -9.2098 0.0 0.0 0.0 7.1250 0.0 -0.0 -8.6203 18.2395 -5.5524
-0.7567 18.1246 -0.6733 3.3471 -10.2226 0.1651 0.0000 0.0000 0.0000 -19.5339 0.7270 1.3500 0.2024 2.8965 7.9909 -0.2447 15.5866 -19.4228 0.4286 -4.2013 -11.6437 0.0000 0.0000 0.0000 18.2388 8.0902 -6.7397 -1.4128 -7.5177 21.2584 -0.2822 -9.1550 -17.1951 -0.4165 4.1427 -11.4784 -0.6741 0.6707 5.6241 0.5834 0.8453 5.3545 0.9480 0.3846 2.3440 -5.0589 -4.6689 -3.5865 -0.5458 -5.8913 6.5715 0.4766 -3.0697 2.8665 -0.0000 -0.0000 0.0000 22.291 18.9995 -64.3959 69.5881 -58.3656 42.4198 27.1866 -55.7069 -41.4636 0.0 0.0 0.0 -7.1250 0.0 0.0 -16.6484 74.239 11.5784 -0.0000 -0.0000 0.0000 -8.0445 28.1022 35.7864 -65.1770 -57.5386 -38.6803 -39.5696 -97.1524 -10.3839 0.0 0.0 0.0 7.1250 0.0 -0.0 -8.6900 16.7048 -5.8942
-0.7679 18.1248 -0.6830 3.2565 -10.2589 0.2639 0.0000 0.0000 0.0000 -19.3893 0.7013 1.1700 0.2074 2.9325 8.0908 -0.2467 15.5768 -19.3824 0.4367 -4.2406 -11.7545 0.0000 0.0000 0.0000 18.3688 8.1563 -6.8549 -1.4119 -7.5154 21.2516 -0.2809 -9.1465 -17.1704 -0.4137 4.1286 -11.4388 -0.6347 0.6267 5.6017 0.6105 0.7878 5.3546 0.9562 0.3565 2.3580 -5.0158 -4.5459 -3.6235 -0.6103 -5.7223 6.6234 0.4539 -2.9878 2.8828 -0.0000 -0.0000 0.0000 22.2839 18.409 -64.0872 70.6346 -58.5345 43.3116 27.6726 -55.4932 -41.166 0.0 0.0 0.0 -7.1250 0.0 0.0 -15.4046 74.1417 10.6711 -0.0000 -0.0000 0.0000 -8.0016 27.5682 34.6302 -65.9484 -57.6972 -39.3317 -40.6594 -97.8292 -11.355 0.0 0.0 0.0 7.1250 0.0 -0.0 -9.2605 15.2827 -6.5799
-0.7765 18.1261 -0.6910 3.2243 -10.2161 0.3275 0.0000 0.0000 0.0000 -19.3300 0.6024 1.0210 0.2152 2.9863 8.2405 -0.2414 15.5459 -19.3966 0.4464 -4.2866 -11.8844 0.0000 0.0000 0.0000 18.4137 8.0611 -6.9687 -1.4091 -7.5083 21.2302 -0.2801 -9.1092 -17.1194 -0.4311 4.2137 -11.6785 -0.5791 0.5710 5.6010 0.5901 0.7159 5.3399 0.9064 0.3228 2.3454 -4.9702 -4.4481 -3.6617 -0.6920 -5.5844 6.7665 0.4228 -2.9232 2.9307 0.0000 0.0000 0.0000 22.3944 17.7587 -63.9334 71.7482 -58.7031 44.2623 28.1932 -55.2302 -41.0824 0.0 0.0 0.0 -7.1250 0.0 0.0 -14.4819 74.2524 10.0594 0.0000 0.0000 0.0000 -7.9515 27.0303 33.4556 -66.9260 -57.8895 -40.1589 -42.1078 -98.6922 -11.8809 0.0 0.0 0.0 7.1250 0.0 -0.0 -10.1252 14.3197 -7.4253
-0.7860 18.1272 -0.6992 3.2223 -10.1501 0.3724 0.0000 0.0000 0.0000 -19.2945 0.4965 0.9211 0.2201 3.0199 8.3343 -0.2394 15.5417 -19.4133 0.4468 -4.2884 -11.8894 0.0000 0.0000 0.0000 18.4409 8.0041 -7.0448 -1.4076 -7.5043 21.2184 -0.2741 -9.1277 -17.0645 -0.4229 4.1739 -11.5663 -0.5847 0.5162 5.6082 0.5682 0.6432 5.3300 0.8894 0.2868 2.3328 -4.9249 -4.3537 -3.6082 -0.7344 -5.4603 6.8266 0.4069 -2.8629 2.9350 -0.0000 -0.0000 0.0000 22.5099 17.0124 -63.8666 72.7740 -58.8485 45.1395 28.4364 -55.1443 -40.9047 0.0 0.0 0.0 -7.1250 0.0 0.0 -13.8139 74.1745 9.5679 -0.0000 -0.0000 0.0000 -8.0298 26.4988 32.3695 -67.8110 -58.0554 -40.9092 -42.8083 -99.3588 -12.3557 0.0 0.0 0.0 7.1250 0.0 -0.0 -10.4938 13.5538 -7.8783
-0.7944 18.1275 -0.7093 3.1346 -10.1488 0.4309 0.0000 0.0000 0.0000 -19.1565 0.4745 0.8606 0.2182 3.0068 8.2976 -0.2499 15.5932 -19.3700 0.4527 -4.3163 -11.9683 0.0000 0.0000 0.0000 18.5742 8.0823 -7.0991 -1.4072 -7.5033 21.2152 -0.2674 -9.1845 -17.0425 -0.4138 4.1291 -11.4401 -0.5148 0.4778 5.6008 0.5642 0.5944 5.3517 0.8481 0.2644 2.3611 -4.8905 -4.2488 -3.5150 -0.7112 -5.3296 6.7973 0.4164 -2.7958 2.9040 -0.0000 0.0000 0.0000 22.5912 16.169 -63.8056 73.6020 -58.9592 45.8485 28.4193 -55.3419 -40.4899 0.0 0.0 0.0 -7.1250 0.0 0.0 -13.1648 73.7789 9.0028 -0.0000 0.0000 0.0000 -8.2317 25.918 31.427 -68.7566 -58.2242 -41.7124 -43.2413 -100.0599 -13.0821 0.0 0.0 0.0 7.1250 0.0 -0.0 -10.6330 12.5116 -8.2232
-0.8006 18.1278 -0.7171 3.1631 -10.1991 0.4594 0.0000 0.0000 0.0000 -19.1680 0.5229 0.8454 0.2124 2.9672 8.1874 -0.2696 15.6729 -19.2597 0.4575 -4.3392 -12.0329 0.0000 0.0000 0.0000 18.5565 8.0838 -7.1942 -1.4089 -7.5076 21.2282 -0.2728 -9.1185 -17.0377 -0.4218 4.1686 -11.5515 -0.5549 0.4683 5.5605 0.5358 0.5807 5.3895 0.8423 0.2563 2.4229 -4.8899 -4.1682 -3.3661 -0.6527 -5.2358 6.7120 0.4432 -2.7457 2.8468 -0.0000 0.0000 0.0000 22.6777 15.2853 -63.7534 74.6294 -59.0882 46.7294 28.9026 -55.2505 -40.1502 0.0 0.0 0.0 -7.1250 0.0 0.0 -11.9066 73.6288 8.0974 -0.0000 0.0000 0.0000 -8.5384 25.318 30.5606 -69.7598 -58.394 -42.566 -44.043 -101.3534 -14.1494 0.0 0.0 0.0 7.1250 0.0 -0.0 -10.9303 10.9222 -8.8276
-0.8072 18.1294 -0.7220 3.2499 -10.1998 0.4321 0.0000 0.0000 0.0000 -19.2405 0.5368 0.8837 0.2090 2.9432 8.1207 -0.2791 15.7057 -19.1968 0.4408 -4.2599 -11.8091 0.0000 0.0000 0.0000 18.4733 8.0246 -7.2271 -1.4085 -7.5068 21.2257 -0.2803 -9.0295 -17.0358 -0.4247 4.1826 -11.5911 -0.6512 0.4330 5.5371 0.4912 0.5311 5.4361 0.8526 0.2287 2.4849 -4.8896 -4.0848 -3.2311 -0.6047 -5.1364 6.6493 0.4660 -2.6936 2.7995 -0.0000 -0.0000 0.0000 22.7766 14.3868 -63.6892 75.8577 -59.2306 47.7841 29.8298 -54.9794 -39.7206 0.0 0.0 0.0 -7.1250 0.0 0.0 -9.8522 73.5436 6.6744 -0.0000 -0.0000 0.0000 -8.9083 24.738 29.757 -70.8670 -58.5706 -43.5098 -44.654 -102.2034 -14.7903 0.0 0.0 0.0 7.1250 0.0 -0.0 -11.1817 9.9194 -9.2715
-0.8138 18.1300 -0.7294 3.3082 -10.1742 0.4138 0.0000 0.0000 0.0000 -19.2747 0.5184 0.9093 0.2064 2.9250 8.0700 -0.2795 15.7090 -19.1972 0.4348 -4.2314 -11.7286 0.0000 0.0000 0.0000 18.4319 8.0318 -7.2290 -1.4079 -7.5052 21.2210 -0.2828 -9.0086 -17.0451 -0.4001 4.0609 -11.2480 -0.7113 0.3907 5.5692 0.4485 0.4732 5.4491 0.8440 0.1986 2.4816 -4.8972 -3.9996 -3.1245 -0.5599 -5.0312 6.6533 0.4879 -2.6400 2.7802 0.0000 0.0000 0.0000 22.8787 13.4868 -63.6246 77.2342 -59.3752 48.9677 30.5339 -54.8496 -39.3264 0.0 0.0 0.0 -7.1250 0.0 0.0 -8.2113 73.407 5.5342 0.0000 0.0000 0.0000 -9.3154 24.181 28.9887 -71.9579 -58.7336 -44.4416 -44.8892 -102.2788 -14.9384 0.0 0.0 0.0 7.1250 0.0 -0.0 -11.2973 9.6589 -9.4319
-0.8212 18.1301 -0.7405 3.2790 -10.1439 0.4183 0.0000 0.0000 0.0000 -19.2103 0.4791 0.8890 0.2064 2.9252 8.0704 -0.2843 15.7435 -19.1961 0.4506 -4.3065 -11.9405 0.0000 0.0000 0.0000 18.5032 8.0938 -7.2051 -1.4045 -7.4965 21.1948 -0.2733 -9.1188 -17.0451 -0.3831 3.9747 -11.0056 -0.7336 0.3490 5.6354 0.4402 0.4166 5.4526 0.8495 0.1698 2.4495 -4.8662 -3.9203 -3.0421 -0.5511 -4.9322 6.6598 0.4908 -2.5898 2.7639 0.0000 -0.0000 0.0000 22.9953 12.5034 -63.564 78.6194 -59.5049 50.1605 30.6184 -55.1797 -38.9661 0.0 0.0 0.0 -7.1250 0.0 0.0 -7.6140 73.0823 5.0768 0.0000 -0.0000 0.0000 -9.8083 23.537 28.3454 -72.9782 -58.8764 -45.3143 -45.3725 -102.6816 -15.3954 0.0 0.0 0.0 7.1250 0.0 -0.0 -11.4996 8.9182 -9.7823
-0.8300 18.1293 -0.7530 3.2212 -10.0834 0.4536 0.0000 0.0000 0.0000 -19.1076 0.3822 0.7968 0.2107 2.9555 8.1549 -0.2813 15.7167 -19.1878 0.4472 -4.2907 -11.8960 0.0000 0.0000 0.0000 18.5994 8.1126 -7.2404 -1.3995 -7.4837 21.1567 -0.2667 -9.1678 -17.0154 -0.3748 3.9321 -10.8859 -0.7305 0.3172 5.6676 0.4284 0.3744 5.4589 0.8369 0.1490 2.4390 -4.8057 -3.8628 -2.9022 -0.5165 -4.8701 6.5752 0.4975 -2.5549 2.7068 -0.0000 0.0000 0.0000 23.1394 11.4082 -63.621 79.8465 -59.6068 51.2185 30.7831 -55.2974 -38.7218 0.0 0.0 0.0 -7.1250 0.0 0.0 -7.0535 72.898 4.6738 -0.0000 0.0000 0.0000 -10.3545 22.8359 27.7787 -73.9447 -59.0032 -46.1422 -46.0495 -103.4053 -16.07 0.0 0.0 0.0 7.1250 0.0 -0.0 -11.7678 7.8222 -10.2817
